<svg id="Capa_1" enable-background="new 0 0 512 512" height="512" viewBox="0 0 512 512" width="512" xmlns="http://www.w3.org/2000/svg"><g><path d="m408.353 294.014c-.89-11.423-3.041-22.497-6.314-33.084l31.988-13.432-11.615-27.66-32.02 13.445c-4.666-8.591-10.135-16.686-16.3-24.188l56.65-56.65-21.213-21.213-56.651 56.651c-7.478-6.145-15.544-11.599-24.106-16.255l13.466-32.013-27.652-11.632-13.453 31.982c-9.677-2.998-19.763-5.055-30.15-6.072v-80.047h-30v80.048c-10.808 1.058-21.287 3.248-31.321 6.446l-13.712-31.878-27.559 11.854 13.728 31.916c-8.16 4.524-15.868 9.768-23.03 15.654l-56.652-56.652-21.213 21.213 56.652 56.653c-6.318 7.688-11.898 16.003-16.64 24.833l-32.094-13.296-11.482 27.715 32.061 13.283c-3.152 10.374-5.234 21.208-6.104 32.379h-103.617v30h512v-30zm-152.373-110.857c63.695 0 116.216 48.726 122.255 110.857h-244.5c6.039-62.13 58.557-110.857 122.245-110.857z"/><path d="m73 350.697h168v30h-168z"/><path d="m334.417 350.697h127.75v30h-127.75z"/><path d="m272.5 350.697h30v30h-30z"/><path d="m259.5 408.154h146.145v30h-146.145z"/><path d="m168 408.154h59.5v30h-59.5z"/></g></svg>