<svg height="512pt" viewBox="0 -43 512 512" width="512pt" xmlns="http://www.w3.org/2000/svg" xmlns:xlink="http://www.w3.org/1999/xlink"><linearGradient id="a"><stop offset="0" stop-color="#662d91"/><stop offset=".437" stop-color="#3873b3"/><stop offset="1" stop-color="#00c9dd"/></linearGradient><linearGradient id="b" gradientTransform="matrix(.994486 0 0 -.994486 0 459.805514)" gradientUnits="userSpaceOnUse" x1="45.7606" x2="457.8804" xlink:href="#a" y1="450.9168" y2="38.797"/><linearGradient id="c" gradientTransform="matrix(.994486 0 0 -.994486 0 459.805514)" gradientUnits="userSpaceOnUse" x1="-134.433" x2="277.6868" xlink:href="#a" y1="270.7233" y2="-141.3965"/><linearGradient id="d" gradientTransform="matrix(.994486 0 0 -.994486 0 459.805514)" gradientUnits="userSpaceOnUse" x1="24.309" x2="436.4288" xlink:href="#a" y1="429.4652" y2="17.3454"/><linearGradient id="e" gradientTransform="matrix(.994486 0 0 -.994486 0 459.805514)" gradientUnits="userSpaceOnUse" x1="-10.0136" x2="402.1062" xlink:href="#a" y1="395.1426" y2="-16.9772"/><linearGradient id="f" gradientTransform="matrix(.994486 0 0 -.994486 0 459.805514)" gradientUnits="userSpaceOnUse" x1="-44.3362" x2="367.7836" xlink:href="#a" y1="360.8201" y2="-51.2997"/><linearGradient id="g" gradientTransform="matrix(.994486 0 0 -.994486 0 459.805514)" gradientUnits="userSpaceOnUse" x1="58.6315" x2="470.7514" xlink:href="#a" y1="463.7878" y2="51.668"/><linearGradient id="h" gradientTransform="matrix(.994486 0 0 -.994486 0 459.805514)" gradientUnits="userSpaceOnUse" x1="92.9541" x2="505.0739" xlink:href="#a" y1="498.1104" y2="85.9906"/><linearGradient id="i" gradientTransform="matrix(.994486 0 0 -.994486 0 459.805514)" gradientUnits="userSpaceOnUse" x1="140.1477" x2="552.2675" xlink:href="#a" y1="545.304" y2="133.1841"/><path d="m503.464844 358.398438h-8.53125v-349.863282c0-4.714844-3.820313-8.535156-8.535156-8.535156h-460.796876c-4.714843 0-8.535156 3.820312-8.535156 8.535156v349.863282h-8.53125c-4.714844 0-8.535156 3.820312-8.535156 8.535156v51.199218c0 4.714844 3.820312 8.535157 8.535156 8.535157h494.929688c4.714844 0 8.535156-3.820313 8.535156-8.535157v-51.199218c0-4.714844-3.820312-8.535156-8.535156-8.535156zm-469.332032-341.332032h443.734376v341.332032h-443.734376zm179.199219 358.402344h85.332031v8.53125h-85.332031zm281.601563 34.132812h-477.867188v-34.136718h179.199219v17.066406c0 4.714844 3.820313 8.535156 8.535156 8.535156h102.398438c4.714843 0 8.535156-3.820312 8.535156-8.535156v-17.066406h51.199219v8.535156h17.066406v-8.535156h17.066406v8.535156h17.066406v-8.535156h17.066407v8.535156h17.066406v-8.535156h42.667969zm0 0" fill="url(#b)"/><path d="m34.132812 384h68.265626v17.066406h-68.265626zm0 0" fill="url(#c)"/><path d="m85.332031 136.535156h34.132813c4.714844 0 8.535156-3.820312 8.535156-8.535156v-34.132812c0-4.714844-3.820312-8.535157-8.535156-8.535157h-34.132813c-4.710937 0-8.53125 3.820313-8.53125 8.535157v34.132812c0 4.714844 3.820313 8.535156 8.53125 8.535156zm8.535157-34.136718h17.066406v17.066406h-17.066406zm0 0" fill="url(#d)"/><path d="m85.332031 204.800781h34.132813c4.714844 0 8.535156-3.820312 8.535156-8.535156v-34.132813c0-4.710937-3.820312-8.535156-8.535156-8.535156h-34.132813c-4.710937 0-8.53125 3.824219-8.53125 8.535156v34.132813c0 4.714844 3.820313 8.535156 8.53125 8.535156zm8.535157-34.132812h17.066406v17.066406h-17.066406zm0 0" fill="url(#e)"/><path d="m85.332031 273.066406h34.132813c4.714844 0 8.535156-3.820312 8.535156-8.535156v-34.132812c0-4.710938-3.820312-8.53125-8.535156-8.53125h-34.132813c-4.710937 0-8.53125 3.820312-8.53125 8.53125v34.132812c0 4.714844 3.820313 8.535156 8.53125 8.535156zm8.535157-34.132812h17.066406v17.066406h-17.066406zm0 0" fill="url(#f)"/><path d="m153.601562 136.535156h34.132813c4.710937 0 8.535156-3.820312 8.535156-8.535156v-34.132812c0-4.714844-3.824219-8.535157-8.535156-8.535157h-34.132813c-4.714843 0-8.535156 3.820313-8.535156 8.535157v34.132812c0 4.714844 3.820313 8.535156 8.535156 8.535156zm8.53125-34.136718h17.066407v17.066406h-17.066407zm0 0" fill="url(#g)"/><path d="m153.601562 204.800781h34.132813c4.710937 0 8.535156-3.820312 8.535156-8.535156v-34.132813c0-4.710937-3.824219-8.535156-8.535156-8.535156h-34.132813c-4.714843 0-8.535156 3.824219-8.535156 8.535156v34.132813c0 4.714844 3.820313 8.535156 8.535156 8.535156zm8.53125-34.132812h17.066407v17.066406h-17.066407zm0 0" fill="url(#d)"/><path d="m153.601562 273.066406h34.132813c4.710937 0 8.535156-3.820312 8.535156-8.535156v-34.132812c0-4.710938-3.824219-8.53125-8.535156-8.53125h-34.132813c-4.714843 0-8.535156 3.820312-8.535156 8.53125v34.132812c0 4.714844 3.820313 8.535156 8.535156 8.535156zm8.53125-34.132812h17.066407v17.066406h-17.066407zm0 0" fill="url(#e)"/><path d="m221.867188 136.535156h34.132812c4.714844 0 8.535156-3.820312 8.535156-8.535156v-34.132812c0-4.714844-3.820312-8.535157-8.535156-8.535157h-34.132812c-4.714844 0-8.535157 3.820313-8.535157 8.535157v34.132812c0 4.714844 3.820313 8.535156 8.535157 8.535156zm8.53125-34.136718h17.066406v17.066406h-17.066406zm0 0" fill="url(#h)"/><path d="m247.46875 25.601562h17.0625v17.066407h-17.0625zm0 0" fill="url(#i)"/><path d="m469.332031 332.800781v-273.066406c0-4.714844-3.820312-8.535156-8.53125-8.535156h-409.601562c-4.710938 0-8.53125 3.820312-8.53125 8.535156v273.066406c0 4.710938 3.820312 8.535157 8.53125 8.535157h409.601562c4.710938-.003907 8.53125-3.824219 8.53125-8.535157zm-17.066406-264.535156v221.867187h-392.53125v-221.867187zm-392.53125 256v-17.066406h42.664063v17.066406zm392.53125 0h-332.800781v-17.066406h332.800781zm0 0" fill="url(#g)"/></svg>