<svg height="512" viewBox="0 0 512 512" width="512" xmlns="http://www.w3.org/2000/svg"><g><path d="m208 480h96a8 8 0 0 0 0-16h-96a8 8 0 0 0 0 16z"/><path d="m428 104h-36v-68a28.031 28.031 0 0 0 -28-28h-216a28.031 28.031 0 0 0 -28 28v68h-36a28.031 28.031 0 0 0 -28 28v248a28.031 28.031 0 0 0 28 28h36v68a28.031 28.031 0 0 0 28 28h216a28.031 28.031 0 0 0 28-28v-68h36a28.031 28.031 0 0 0 28-28v-248a28.031 28.031 0 0 0 -28-28zm-134.56-80-4.5 16h-66.69l-4-16zm-157.44 12a12.01 12.01 0 0 1 12-12h53.75l6.49 25.94a8 8 0 0 0 7.76 6.06h79a8 8 0 0 0 7.7-5.83l7.36-26.17h53.94a12.01 12.01 0 0 1 12 12v68h-240zm240 440a12.01 12.01 0 0 1 -12 12h-216a12.01 12.01 0 0 1 -12-12v-68h240zm64-96a12.01 12.01 0 0 1 -12 12h-344a12.01 12.01 0 0 1 -12-12v-212h368zm0-228h-368v-20a12.01 12.01 0 0 1 12-12h344a12.01 12.01 0 0 1 12 12z"/><path d="m88 144h8a8 8 0 0 0 0-16h-8a8 8 0 0 0 0 16z"/><path d="m120 144h8a8 8 0 0 0 0-16h-8a8 8 0 0 0 0 16z"/><path d="m152 144h8a8 8 0 0 0 0-16h-8a8 8 0 0 0 0 16z"/><path d="m144 224h-24a8 8 0 0 0 0 16h24a8 8 0 0 0 0-16z"/><path d="m392 224h-224a8 8 0 0 0 0 16h224a8 8 0 0 0 0-16z"/><path d="m144 256h-24a8 8 0 0 0 0 16h24a8 8 0 0 0 0-16z"/><path d="m392 256h-224a8 8 0 0 0 0 16h224a8 8 0 0 0 0-16z"/><path d="m144 288h-24a8 8 0 0 0 0 16h24a8 8 0 0 0 0-16z"/><path d="m392 288h-224a8 8 0 0 0 0 16h224a8 8 0 0 0 0-16z"/><path d="m144 320h-24a8 8 0 0 0 0 16h24a8 8 0 0 0 0-16z"/><path d="m392 320h-224a8 8 0 0 0 0 16h224a8 8 0 0 0 0-16z"/></g></svg>